<svg width="46" height="46" viewBox="0 0 46 46" xmlns="http://www.w3.org/2000/svg"><path d="M39.035 6.515c.54.144 1.09.694 1.237 1.236l5.558 20.747c.145.54-.055 1.293-.452 1.69L30.19 45.374c-.394.394-1.146.597-1.688.452l-20.746-5.56c-.54-.143-1.092-.693-1.237-1.235L.96 18.286c-.144-.54.056-1.292.453-1.69L16.6 1.41c.394-.396 1.147-.6 1.69-.454l20.745 5.56zm-16.278 1.89l-12.04 6.922c-.388.223-.693.76-.693 1.207v13.824c0 .457.31.987.693 1.207l12.04 6.923c.388.223 1.004.22 1.387 0l12.04-6.923c.388-.223.693-.76.693-1.207V16.534c0-.457-.31-.987-.693-1.207l-12.04-6.923c-.388-.223-1.004-.22-1.387 0z" fill="#FFF" fill-rule="evenodd"/></svg>
            